<svg id="Layer_1" data-name="Layer 1" xmlns="http://www.w3.org/2000/svg" viewBox="0 0 30 9.79"><defs><style>.cls-1{fill:#fff;}</style></defs><path class="cls-1" d="M.91.61.75.76V5.5l.16.15H2.66a3.32,3.32,0,0,0-1.91,3v1.57l.16.16h9.46l.16-.16V5.5l-.16-.16H8.61a3.32,3.32,0,0,0,1.92-3V.76L10.37.61Z" transform="translate(-0.75 -0.61)"/><path class="cls-1" d="M17.32.61H14.17a3.31,3.31,0,0,0-3.31,3.31V5.5h0V7.08a3.31,3.31,0,0,0,3.31,3.31h3.15a3.32,3.32,0,0,0,3.32-3.31V5.5h0V3.92A3.32,3.32,0,0,0,17.32.61Z" transform="translate(-0.75 -0.61)"/><path class="cls-1" d="M30.75,5.5V.77L30.59.61H21.13L21,.77V5.5l.16.16h1.75a3.32,3.32,0,0,0-1.91,3v1.58l.16.15h9.46l.16-.15V8.66a3.32,3.32,0,0,0-1.91-3h1.75Z" transform="translate(-0.75 -0.61)"/></svg>